<?xml version="1.0" encoding="utf-8"?>
<!-- Generator: Adobe Illustrator 27.5.0, SVG Export Plug-In . SVG Version: 6.00 Build 0)  -->
<svg version="1.1" id="Capa_1" xmlns="http://www.w3.org/2000/svg" xmlns:xlink="http://www.w3.org/1999/xlink" x="0px" y="0px"
	 viewBox="0 0 347.026 399.951" style="enable-background:new 0 0 347.026 399.951;" xml:space="preserve">
<g>
	<polygon style="fill:#D03E43;" points="344.736,165.833 2.29,165.833 27.899,199.975 2.29,234.116 344.736,234.116 
		319.132,199.975 	"/>
	<g>
		<g>
			<g>
				
					<line style="fill:none;stroke:#939598;stroke-width:0.8167;stroke-linecap:round;stroke-linejoin:round;" x1="342.772" y1="168.447" x2="342.16" y2="168.447"/>
				
					<line style="fill:none;stroke:#939598;stroke-width:0.8167;stroke-linecap:round;stroke-linejoin:round;stroke-dasharray:1.2265,1.2265;" x1="340.933" y1="168.447" x2="5.477" y2="168.447"/>
				
					<line style="fill:none;stroke:#939598;stroke-width:0.8167;stroke-linecap:round;stroke-linejoin:round;" x1="4.864" y1="168.447" x2="4.251" y2="168.447"/>
			</g>
		</g>
		<g>
			<g>
				
					<line style="fill:none;stroke:#939598;stroke-width:0.8167;stroke-linecap:round;stroke-linejoin:round;" x1="342.772" y1="232.287" x2="342.16" y2="232.287"/>
				
					<line style="fill:none;stroke:#939598;stroke-width:0.8167;stroke-linecap:round;stroke-linejoin:round;stroke-dasharray:1.2265,1.2265;" x1="340.933" y1="232.287" x2="5.477" y2="232.287"/>
				
					<line style="fill:none;stroke:#939598;stroke-width:0.8167;stroke-linecap:round;stroke-linejoin:round;" x1="4.864" y1="232.287" x2="4.251" y2="232.287"/>
			</g>
		</g>
	</g>
</g>
<rect x="0" style="fill:#E6E7E8;" width="347.026" height="399.951"/>
<g>
	<g>
		<path style="fill:#2E313A;" d="M273.66,94.237V79.755h-18.496c-19.501-23.307-48.826-38.145-81.649-38.145
			c-32.825,0-62.152,14.838-81.649,38.145h-18.5v14.482H61.39v218.567l112.125,45.534l112.122-45.534V94.237H273.66z"/>
		
			<path style="fill:none;stroke:#FFFFFF;stroke-width:0.8167;stroke-linecap:round;stroke-linejoin:round;stroke-miterlimit:10;" d="
			M265.508,103.632V90.101h-16.993c-17.911-21.779-44.844-35.648-74.999-35.648c-30.152,0-57.093,13.869-75.004,35.648H81.523
			v13.531H70.518v199.313l102.997,42.553l102.997-42.553V103.632H265.508z"/>
	</g>
	<g>
		<g>
			<g>
				<g>
					<g>
						<g>
							<polygon style="fill:#FFFFFF;" points="81.469,233.621 81.49,233.62 81.491,233.621 81.49,233.622 81.49,233.622 							"/>
							<path style="fill:#FFFFFF;" d="M82.71,233.563l0.041-0.002c0.033-0.001,0.062,0.024,0.063,0.058
								c0.001,0.033-0.024,0.061-0.058,0.063c-0.002,0-0.004,0-0.006,0l-0.041-0.002c-0.032-0.001-0.057-0.028-0.056-0.061
								C82.656,233.588,82.68,233.563,82.71,233.563z"/>
							<path style="fill:#FFFFFF;" d="M83.971,233.517l0.041-0.001c0.059-0.002,0.107,0.044,0.109,0.102
								c0.002,0.059-0.043,0.107-0.102,0.109c-0.002,0-0.005,0-0.008,0l-0.041-0.001c-0.057-0.002-0.103-0.051-0.1-0.107
								C83.873,233.563,83.916,233.518,83.971,233.517z"/>
							<path style="fill:#FFFFFF;" d="M85.232,233.473l0.04-0.001c0.083-0.004,0.152,0.062,0.155,0.145
								c0.003,0.082-0.062,0.152-0.145,0.154c-0.003,0-0.007,0-0.01,0l-0.04-0.001c-0.082-0.003-0.146-0.071-0.144-0.153
								C85.091,233.538,85.155,233.475,85.232,233.473z"/>
							<path style="fill:#FFFFFF;" d="M86.493,233.429l0.041-0.002c0.107-0.004,0.197,0.08,0.201,0.188
								c0.003,0.107-0.08,0.197-0.188,0.201c-0.004,0-0.009,0-0.014,0l-0.041-0.002c-0.106-0.004-0.189-0.093-0.186-0.199
								C86.31,233.513,86.393,233.433,86.493,233.429z"/>
							<path style="fill:#FFFFFF;" d="M87.754,233.397l0.041-0.002c0.124-0.002,0.227,0.096,0.229,0.221
								c0.003,0.125-0.096,0.228-0.22,0.23c-0.003,0-0.007,0-0.01,0l-0.041-0.002c-0.124-0.002-0.222-0.104-0.219-0.229
								C87.537,233.495,87.634,233.399,87.754,233.397z"/>
							<path style="fill:#FFFFFF;" d="M89.015,233.37l0.04-0.002c0.139-0.002,0.255,0.108,0.258,0.248
								c0.003,0.139-0.107,0.254-0.247,0.258c-0.004,0-0.007,0-0.011,0l-0.04-0.002c-0.139-0.002-0.249-0.117-0.246-0.256
								C88.771,233.48,88.881,233.373,89.015,233.37z"/>
							<path style="fill:#FFFFFF;" d="M90.275,233.343l0.041-0.001c0.154-0.003,0.282,0.119,0.285,0.273
								c0.003,0.154-0.119,0.282-0.273,0.285c-0.004,0-0.008,0-0.012,0l-0.041-0.001c-0.154-0.004-0.276-0.131-0.272-0.284
								C90.006,233.466,90.128,233.347,90.275,233.343z"/>
							<path style="fill:#FFFFFF;" d="M91.536,233.315h0.041c0.169-0.004,0.309,0.13,0.313,0.299c0.003,0.17-0.131,0.31-0.3,0.313
								c-0.004,0.001-0.009,0.001-0.013,0h-0.041c-0.169-0.004-0.302-0.143-0.299-0.313
								C91.241,233.45,91.374,233.319,91.536,233.315z"/>
							<path style="fill:#FFFFFF;" d="M92.797,233.288h0.04c0.184-0.004,0.337,0.142,0.34,0.326c0.004,0.184-0.142,0.336-0.326,0.34
								c-0.004,0-0.01,0-0.014,0h-0.04c-0.184-0.004-0.33-0.156-0.326-0.34C92.476,233.436,92.621,233.292,92.797,233.288z"/>
							<path style="fill:#FFFFFF;" d="M94.058,233.271h0.041c0.193-0.001,0.351,0.153,0.353,0.347
								c0.001,0.193-0.154,0.352-0.347,0.353c-0.001,0-0.004,0-0.005,0h-0.041c-0.193-0.001-0.349-0.159-0.347-0.353
								C93.712,233.427,93.868,233.272,94.058,233.271z"/>
							<path style="fill:#FFFFFF;" d="M95.319,233.263h0.041c0.198-0.002,0.36,0.158,0.361,0.355
								c0.001,0.199-0.158,0.36-0.356,0.361c-0.001,0-0.004,0-0.005,0h-0.041c-0.198-0.002-0.357-0.163-0.355-0.361
								C94.964,233.423,95.124,233.265,95.319,233.263z"/>
							<path style="fill:#FFFFFF;" d="M96.58,233.254l0.04-0.001c0.203-0.001,0.369,0.162,0.37,0.365
								c0.002,0.203-0.162,0.369-0.365,0.371c-0.001,0-0.004,0-0.005,0l-0.04-0.001c-0.203-0.001-0.366-0.167-0.365-0.37
								C96.216,233.417,96.379,233.255,96.58,233.254z"/>
							<path style="fill:#FFFFFF;" d="M97.841,233.245h0.041c0.208-0.002,0.378,0.165,0.379,0.373
								c0.001,0.209-0.166,0.378-0.374,0.379c-0.001,0-0.004,0-0.005,0h-0.041c-0.208-0.001-0.375-0.171-0.374-0.379
								C97.469,233.413,97.636,233.246,97.841,233.245z"/>
							<path style="fill:#FFFFFF;" d="M99.102,233.235h0.041c0.213-0.002,0.387,0.17,0.388,0.383
								c0.002,0.213-0.17,0.387-0.383,0.389c-0.001,0-0.004,0-0.005,0h-0.041c-0.213-0.002-0.384-0.176-0.383-0.389
								C98.721,233.407,98.892,233.237,99.102,233.235z"/>
							<path style="fill:#FFFFFF;" d="M100.363,233.227h0.041c0.218-0.001,0.396,0.174,0.397,0.392
								c0.002,0.219-0.174,0.396-0.392,0.397c-0.001,0-0.004,0-0.005,0h-0.041c-0.218-0.002-0.393-0.18-0.392-0.397
								C99.973,233.402,100.148,233.229,100.363,233.227z"/>
							<path style="fill:#FFFFFF;" d="M101.624,233.218h0.041c0.223-0.002,0.404,0.178,0.406,0.4
								c0.002,0.223-0.178,0.404-0.401,0.406c-0.001,0-0.004,0-0.005,0h-0.041c-0.223-0.002-0.402-0.184-0.4-0.406
								C101.225,233.397,101.404,233.22,101.624,233.218z"/>
							<path style="fill:#FFFFFF;" d="M102.884,233.217h0.041c0.223,0.002,0.403,0.185,0.401,0.407
								c-0.002,0.221-0.181,0.4-0.401,0.401h-0.041c-0.223,0.002-0.405-0.179-0.407-0.401c-0.001-0.224,0.178-0.406,0.402-0.407
								C102.88,233.217,102.883,233.217,102.884,233.217z"/>
							<path style="fill:#FFFFFF;" d="M104.146,233.225h0.041c0.218,0.002,0.394,0.18,0.393,0.398
								c-0.002,0.217-0.177,0.391-0.393,0.393h-0.041c-0.218,0.002-0.397-0.174-0.398-0.393c-0.002-0.219,0.174-0.396,0.393-0.398
								C104.141,233.225,104.144,233.225,104.146,233.225z"/>
							<path style="fill:#FFFFFF;" d="M105.406,233.235h0.04c0.213,0.001,0.385,0.176,0.384,0.389
								c-0.002,0.211-0.173,0.382-0.384,0.383h-0.04c-0.213,0.002-0.388-0.17-0.389-0.383c-0.001-0.213,0.17-0.388,0.384-0.389
								C105.402,233.235,105.405,233.235,105.406,233.235z"/>
							<path style="fill:#FFFFFF;" d="M106.668,233.243l0.04,0.001c0.208,0.001,0.376,0.171,0.375,0.38
								c-0.002,0.206-0.169,0.373-0.375,0.374l-0.04,0.001c-0.209,0.001-0.379-0.167-0.38-0.375
								c-0.001-0.209,0.167-0.379,0.375-0.381C106.663,233.243,106.666,233.243,106.668,233.243z"/>
							<path style="fill:#FFFFFF;" d="M107.928,233.253h0.041c0.204,0.002,0.367,0.168,0.366,0.371
								c-0.002,0.201-0.165,0.363-0.366,0.365h-0.041c-0.204,0.002-0.37-0.162-0.371-0.365c-0.001-0.203,0.162-0.37,0.366-0.371
								C107.924,233.253,107.927,233.253,107.928,233.253z"/>
							<path style="fill:#FFFFFF;" d="M109.189,233.262l0.041,0.001c0.198,0,0.358,0.162,0.356,0.361
								c-0.002,0.196-0.161,0.355-0.356,0.355l-0.041,0.001c-0.198,0.001-0.36-0.158-0.362-0.356
								c-0.002-0.199,0.158-0.361,0.357-0.362C109.185,233.262,109.188,233.262,109.189,233.262z"/>
							<path style="fill:#FFFFFF;" d="M110.45,233.27h0.041c0.193,0.002,0.349,0.16,0.348,0.354
								c-0.001,0.191-0.157,0.346-0.348,0.348h-0.041c-0.194,0.001-0.352-0.154-0.353-0.348c-0.001-0.193,0.154-0.352,0.348-0.354
								C110.446,233.27,110.449,233.27,110.45,233.27z"/>
							<path style="fill:#FFFFFF;" d="M111.711,233.286l0.041,0.001c0.185,0.004,0.331,0.157,0.327,0.341
								c-0.004,0.18-0.149,0.323-0.327,0.327l-0.041,0.001c-0.185,0.004-0.338-0.143-0.342-0.328
								c-0.004-0.185,0.143-0.338,0.328-0.342C111.701,233.286,111.707,233.286,111.711,233.286z"/>
							<path style="fill:#FFFFFF;" d="M112.972,233.313l0.041,0.002c0.169,0.002,0.304,0.143,0.3,0.313
								c-0.004,0.164-0.137,0.297-0.3,0.3l-0.041,0.001c-0.17,0.004-0.311-0.131-0.314-0.301c-0.004-0.17,0.131-0.311,0.301-0.314
								C112.962,233.313,112.968,233.313,112.972,233.313z"/>
							<path style="fill:#FFFFFF;" d="M114.233,233.341h0.04c0.154,0.004,0.277,0.132,0.273,0.286
								c-0.003,0.15-0.124,0.27-0.273,0.274h-0.04c-0.155,0.004-0.283-0.119-0.287-0.274c-0.003-0.155,0.12-0.283,0.274-0.286
								C114.224,233.341,114.229,233.341,114.233,233.341z"/>
							<path style="fill:#FFFFFF;" d="M115.494,233.368h0.041c0.14,0.004,0.25,0.119,0.247,0.258
								c-0.003,0.137-0.113,0.244-0.247,0.248h-0.041c-0.14,0.004-0.256-0.107-0.259-0.248c-0.003-0.139,0.108-0.255,0.248-0.258
								C115.486,233.368,115.49,233.368,115.494,233.368z"/>
							<path style="fill:#FFFFFF;" d="M116.754,233.395h0.041c0.124,0.004,0.223,0.105,0.22,0.23
								c-0.003,0.121-0.101,0.217-0.22,0.221h-0.041c-0.125,0.003-0.228-0.096-0.23-0.221c-0.003-0.125,0.096-0.229,0.221-0.23
								C116.748,233.395,116.752,233.395,116.754,233.395z"/>
							<path style="fill:#FFFFFF;" d="M118.016,233.426l0.04,0.001c0.107,0.004,0.191,0.094,0.187,0.201
								c-0.003,0.102-0.086,0.184-0.187,0.188l-0.04,0.001c-0.108,0.004-0.199-0.081-0.203-0.189
								c-0.003-0.107,0.081-0.198,0.188-0.202C118.006,233.426,118.011,233.426,118.016,233.426z"/>
							<path style="fill:#FFFFFF;" d="M119.276,233.47l0.041,0.002c0.083,0.003,0.147,0.072,0.145,0.154
								c-0.003,0.079-0.067,0.142-0.145,0.145l-0.041,0.002c-0.083,0.002-0.153-0.063-0.156-0.146
								c-0.003-0.083,0.062-0.152,0.145-0.156C119.269,233.47,119.273,233.47,119.276,233.47z"/>
							<path style="fill:#FFFFFF;" d="M120.538,233.515l0.041,0.002c0.058,0.002,0.103,0.051,0.101,0.108
								c-0.002,0.056-0.047,0.099-0.101,0.1l-0.041,0.002c-0.059,0.002-0.108-0.044-0.11-0.102c-0.002-0.059,0.044-0.108,0.103-0.11
								C120.532,233.515,120.535,233.515,120.538,233.515z"/>
							<path style="fill:#FFFFFF;" d="M121.798,233.559l0.04,0.002c0.033,0.002,0.058,0.029,0.056,0.063
								c-0.002,0.03-0.026,0.055-0.056,0.057l-0.04,0.002c-0.034,0.001-0.062-0.025-0.063-0.059
								c-0.002-0.033,0.024-0.063,0.058-0.064C121.795,233.559,121.796,233.559,121.798,233.559z"/>
							<polygon style="fill:#FFFFFF;" points="123.059,233.62 123.08,233.621 123.059,233.622 123.058,233.621 123.059,233.62 
															"/>
						</g>
					</g>
					<g>
						<g>
							<polygon style="fill:#FFFFFF;" points="216.862,233.621 216.882,233.62 216.883,233.62 216.882,233.622 216.882,233.622 
															"/>
							<path style="fill:#FFFFFF;" d="M218.123,233.57l0.041-0.001c0.029-0.002,0.054,0.02,0.055,0.05
								c0.001,0.028-0.022,0.054-0.05,0.054c-0.001,0.001-0.003,0.001-0.004,0l-0.041-0.001c-0.028-0.001-0.05-0.024-0.049-0.053
								C218.075,233.593,218.096,233.571,218.123,233.57z"/>
							<path style="fill:#FFFFFF;" d="M219.404,233.528l0.042-0.001c0.052-0.001,0.095,0.039,0.097,0.091
								c0.001,0.052-0.039,0.096-0.091,0.097c-0.002,0-0.004,0-0.006,0l-0.042-0.001c-0.051-0.002-0.091-0.045-0.089-0.096
								C219.316,233.569,219.355,233.53,219.404,233.528z"/>
							<path style="fill:#FFFFFF;" d="M220.686,233.49l0.042-0.001c0.073-0.002,0.134,0.055,0.136,0.128
								c0.003,0.073-0.055,0.134-0.128,0.136c-0.002,0-0.005,0-0.008,0l-0.042-0.001c-0.072-0.002-0.129-0.062-0.127-0.135
								C220.561,233.548,220.617,233.492,220.686,233.49z"/>
							<path style="fill:#FFFFFF;" d="M221.967,233.452l0.042-0.002c0.094-0.003,0.173,0.071,0.176,0.166
								c0.003,0.094-0.071,0.173-0.165,0.176c-0.003,0-0.007,0-0.01,0l-0.042-0.002c-0.094-0.002-0.167-0.08-0.165-0.174
								C221.806,233.526,221.878,233.454,221.967,233.452z"/>
							<path style="fill:#FFFFFF;" d="M223.249,233.415l0.041-0.001c0.115-0.003,0.209,0.089,0.211,0.203
								c0.002,0.114-0.089,0.209-0.204,0.211c-0.002,0.001-0.005,0.001-0.008,0l-0.041-0.001c-0.114-0.002-0.205-0.096-0.203-0.21
								C223.048,233.506,223.138,233.417,223.249,233.415z"/>
							<path style="fill:#FFFFFF;" d="M224.531,233.392l0.041-0.002c0.128-0.002,0.232,0.1,0.235,0.227
								c0.002,0.128-0.1,0.233-0.227,0.236c-0.003,0-0.006,0-0.009,0l-0.041-0.002c-0.127-0.002-0.229-0.106-0.226-0.234
								C224.307,233.493,224.408,233.393,224.531,233.392z"/>
							<path style="fill:#FFFFFF;" d="M225.812,233.368l0.042-0.002c0.14-0.002,0.256,0.109,0.259,0.25
								c0.003,0.141-0.109,0.256-0.25,0.26c-0.003,0-0.007,0-0.009,0l-0.042-0.002c-0.14-0.002-0.252-0.117-0.249-0.258
								C225.566,233.479,225.676,233.37,225.812,233.368z"/>
							<path style="fill:#FFFFFF;" d="M227.094,233.345l0.042-0.002c0.153-0.002,0.28,0.119,0.283,0.273
								c0.003,0.153-0.12,0.279-0.273,0.283c-0.003,0-0.007,0-0.01,0l-0.042-0.002c-0.153-0.002-0.275-0.129-0.272-0.281
								C226.825,233.467,226.946,233.347,227.094,233.345z"/>
							<path style="fill:#FFFFFF;" d="M228.376,233.321l0.041-0.002c0.166-0.002,0.304,0.13,0.307,0.297
								c0.003,0.166-0.129,0.303-0.295,0.307c-0.003,0-0.008,0-0.011,0l-0.041-0.002c-0.166-0.002-0.298-0.139-0.295-0.305
								C228.083,233.454,228.214,233.323,228.376,233.321z"/>
							<path style="fill:#FFFFFF;" d="M229.657,233.297l0.042-0.001c0.179-0.003,0.328,0.14,0.33,0.319
								c0.004,0.179-0.139,0.327-0.319,0.331c-0.003,0-0.008,0-0.012,0l-0.042-0.001c-0.179-0.003-0.321-0.151-0.318-0.33
								C229.342,233.44,229.484,233.3,229.657,233.297z"/>
							<path style="fill:#FFFFFF;" d="M230.939,233.275h0.041c0.191-0.001,0.347,0.153,0.348,0.344
								c0.001,0.19-0.153,0.347-0.344,0.348c-0.001,0-0.003,0-0.003,0h-0.042c-0.191-0.001-0.345-0.157-0.343-0.348
								C230.596,233.43,230.75,233.276,230.939,233.275z"/>
							<path style="fill:#FFFFFF;" d="M232.22,233.268h0.041c0.195-0.001,0.354,0.156,0.356,0.352
								c0.001,0.196-0.156,0.355-0.352,0.355c0,0-0.003,0-0.004,0h-0.041c-0.195-0.001-0.353-0.161-0.352-0.355
								C231.87,233.425,232.027,233.268,232.22,233.268z"/>
							<path style="fill:#FFFFFF;" d="M233.501,233.26h0.042c0.2-0.001,0.362,0.159,0.364,0.359c0.001,0.199-0.16,0.362-0.359,0.364
								c-0.001,0-0.003,0-0.004,0h-0.042c-0.199-0.002-0.36-0.165-0.358-0.364C233.144,233.421,233.304,233.261,233.501,233.26z"/>
							<path style="fill:#FFFFFF;" d="M234.783,233.253l0.042-0.001c0.204-0.001,0.37,0.163,0.371,0.366
								c0.001,0.205-0.163,0.371-0.367,0.372c-0.001,0-0.003,0-0.004,0l-0.042-0.001c-0.204,0-0.368-0.166-0.367-0.371
								C234.418,233.417,234.582,233.253,234.783,233.253z"/>
							<path style="fill:#FFFFFF;" d="M236.065,233.245l0.041-0.001c0.208-0.001,0.378,0.167,0.379,0.374
								c0.001,0.209-0.167,0.379-0.374,0.38c-0.001,0-0.004,0-0.005,0l-0.041-0.001c-0.208,0-0.376-0.17-0.374-0.379
								C235.692,233.413,235.859,233.245,236.065,233.245z"/>
							<path style="fill:#FFFFFF;" d="M237.346,233.237l0.041-0.001c0.212-0.001,0.386,0.17,0.387,0.382
								c0.001,0.213-0.17,0.387-0.382,0.388c-0.001,0-0.004,0-0.005,0l-0.041-0.001c-0.212,0-0.383-0.174-0.382-0.387
								C236.966,233.408,237.136,233.238,237.346,233.237z"/>
							<path style="fill:#FFFFFF;" d="M238.628,233.229l0.041-0.001c0.217-0.001,0.394,0.173,0.395,0.39
								c0.002,0.217-0.173,0.395-0.39,0.395c-0.001,0-0.004,0-0.005,0l-0.041-0.001c-0.216,0-0.391-0.178-0.39-0.395
								C238.24,233.403,238.414,233.23,238.628,233.229z"/>
							<path style="fill:#FFFFFF;" d="M239.91,233.222l0.041-0.001c0.221-0.001,0.401,0.177,0.403,0.397
								c0.001,0.222-0.177,0.402-0.398,0.403c0,0-0.004,0-0.005,0l-0.041-0.001c-0.221-0.001-0.399-0.182-0.397-0.402
								C239.513,233.399,239.691,233.223,239.91,233.222z"/>
							<path style="fill:#FFFFFF;" d="M241.191,233.214l0.041-0.001c0.225-0.001,0.409,0.181,0.411,0.405
								c0.002,0.226-0.18,0.41-0.405,0.411c-0.001,0-0.004,0-0.005,0l-0.041-0.001c-0.225-0.001-0.407-0.185-0.405-0.41
								C240.788,233.395,240.968,233.215,241.191,233.214z"/>
							<path style="fill:#FFFFFF;" d="M242.473,233.22h0.041c0.222,0.002,0.4,0.183,0.398,0.404
								c-0.001,0.219-0.18,0.396-0.398,0.398h-0.041c-0.222,0.002-0.402-0.178-0.404-0.398c-0.001-0.223,0.177-0.402,0.398-0.404
								C242.469,233.22,242.472,233.22,242.473,233.22z"/>
							<path style="fill:#FFFFFF;" d="M243.754,233.227h0.042c0.217,0.002,0.392,0.179,0.391,0.396
								c-0.001,0.215-0.176,0.389-0.391,0.391h-0.042c-0.217,0.001-0.395-0.174-0.395-0.391c-0.001-0.218,0.174-0.395,0.391-0.396
								C243.751,233.227,243.753,233.227,243.754,233.227z"/>
							<path style="fill:#FFFFFF;" d="M245.036,233.235h0.042c0.212,0.002,0.384,0.176,0.383,0.389
								c-0.001,0.211-0.173,0.381-0.383,0.383h-0.042c-0.213,0.001-0.387-0.17-0.388-0.383c-0.001-0.213,0.17-0.387,0.383-0.389
								C245.032,233.235,245.035,233.235,245.036,233.235z"/>
							<path style="fill:#FFFFFF;" d="M246.318,233.243h0.041c0.208,0.002,0.376,0.172,0.375,0.381
								c-0.001,0.206-0.169,0.373-0.375,0.375h-0.041c-0.209,0.001-0.379-0.167-0.38-0.375c-0.001-0.209,0.167-0.379,0.375-0.381
								C246.314,233.243,246.317,233.243,246.318,233.243z"/>
							<path style="fill:#FFFFFF;" d="M247.599,233.251h0.042c0.204,0.002,0.369,0.168,0.367,0.373
								c-0.002,0.201-0.166,0.365-0.367,0.367h-0.042c-0.204,0.001-0.371-0.164-0.372-0.367c-0.001-0.205,0.164-0.371,0.368-0.373
								C247.596,233.251,247.598,233.251,247.599,233.251z"/>
							<path style="fill:#FFFFFF;" d="M248.881,233.259h0.041c0.2,0.002,0.36,0.164,0.359,0.365
								c-0.001,0.197-0.162,0.357-0.359,0.359h-0.041c-0.2,0.001-0.363-0.16-0.364-0.359c-0.001-0.201,0.16-0.363,0.36-0.365
								C248.878,233.259,248.88,233.259,248.881,233.259z"/>
							<path style="fill:#FFFFFF;" d="M250.163,233.267h0.041c0.195,0.002,0.353,0.161,0.352,0.356
								c-0.001,0.194-0.159,0.351-0.352,0.352h-0.041c-0.196,0.001-0.355-0.156-0.356-0.352c-0.001-0.195,0.156-0.355,0.352-0.356
								C250.159,233.267,250.162,233.267,250.163,233.267z"/>
							<path style="fill:#FFFFFF;" d="M251.444,233.274h0.042c0.191,0.002,0.345,0.158,0.344,0.349
								c-0.001,0.19-0.155,0.343-0.344,0.345h-0.042c-0.191,0.001-0.347-0.152-0.348-0.345c-0.001-0.19,0.153-0.347,0.344-0.349
								C251.44,233.274,251.443,233.274,251.444,233.274z"/>
							<path style="fill:#FFFFFF;" d="M252.726,233.295l0.042,0.001c0.18,0.003,0.323,0.151,0.319,0.331
								c-0.003,0.176-0.146,0.316-0.319,0.319l-0.042,0.001c-0.18,0.003-0.329-0.14-0.333-0.32c-0.003-0.181,0.14-0.329,0.32-0.332
								C252.717,233.295,252.722,233.295,252.726,233.295z"/>
							<path style="fill:#FFFFFF;" d="M254.007,233.318l0.041,0.001c0.167,0.003,0.3,0.141,0.296,0.307
								c-0.003,0.164-0.135,0.294-0.296,0.297l-0.041,0.001c-0.167,0.003-0.305-0.13-0.309-0.298
								c-0.003-0.166,0.13-0.305,0.297-0.308C254,233.318,254.004,233.318,254.007,233.318z"/>
							<path style="fill:#FFFFFF;" d="M255.289,233.343h0.041c0.154,0.003,0.276,0.13,0.273,0.283
								c-0.003,0.15-0.124,0.27-0.273,0.273h-0.041c-0.154,0.004-0.281-0.119-0.284-0.273c-0.002-0.154,0.12-0.281,0.274-0.283
								C255.282,233.342,255.286,233.343,255.289,233.343z"/>
							<path style="fill:#FFFFFF;" d="M256.57,233.366h0.042c0.141,0.003,0.252,0.119,0.25,0.26c-0.003,0.137-0.114,0.247-0.25,0.25
								h-0.042c-0.141,0.003-0.257-0.109-0.26-0.25c-0.002-0.141,0.11-0.258,0.251-0.26
								C256.564,233.366,256.568,233.366,256.57,233.366z"/>
							<path style="fill:#FFFFFF;" d="M257.852,233.39h0.041c0.128,0.003,0.229,0.108,0.227,0.236
								c-0.003,0.124-0.103,0.224-0.227,0.227h-0.041c-0.128,0.002-0.233-0.1-0.236-0.227c-0.003-0.129,0.099-0.234,0.227-0.236
								C257.846,233.39,257.85,233.39,257.852,233.39z"/>
							<path style="fill:#FFFFFF;" d="M259.134,233.413l0.041,0.001c0.115,0.002,0.206,0.097,0.204,0.211
								c-0.002,0.112-0.093,0.201-0.204,0.203l-0.041,0.001c-0.115,0.002-0.21-0.09-0.212-0.204
								c-0.002-0.114,0.089-0.21,0.204-0.212C259.129,233.413,259.131,233.413,259.134,233.413z"/>
							<path style="fill:#FFFFFF;" d="M260.415,233.449l0.042,0.001c0.094,0.004,0.168,0.082,0.165,0.176
								c-0.003,0.091-0.076,0.162-0.165,0.166l-0.042,0.001c-0.095,0.003-0.174-0.071-0.177-0.167
								c-0.003-0.095,0.072-0.174,0.166-0.177C260.408,233.449,260.412,233.449,260.415,233.449z"/>
							<path style="fill:#FFFFFF;" d="M261.697,233.488l0.042,0.001c0.073,0.002,0.13,0.063,0.128,0.136
								c-0.002,0.069-0.059,0.126-0.128,0.128l-0.042,0.001c-0.073,0.003-0.135-0.056-0.137-0.129
								c-0.002-0.073,0.056-0.135,0.129-0.137C261.691,233.487,261.694,233.487,261.697,233.488z"/>
							<path style="fill:#FFFFFF;" d="M262.979,233.526l0.042,0.002c0.051,0.002,0.092,0.044,0.09,0.096
								c-0.001,0.049-0.042,0.088-0.09,0.09l-0.042,0.002c-0.052,0.001-0.096-0.039-0.097-0.092
								c-0.002-0.053,0.039-0.096,0.091-0.098C262.975,233.526,262.977,233.526,262.979,233.526z"/>
							<path style="fill:#FFFFFF;" d="M264.26,233.568l0.041,0.001c0.028,0.002,0.05,0.025,0.049,0.054
								c-0.001,0.026-0.022,0.048-0.049,0.05l-0.041,0.001c-0.029,0.001-0.054-0.021-0.055-0.051
								c-0.001-0.028,0.021-0.054,0.051-0.055C264.257,233.568,264.259,233.568,264.26,233.568z"/>
							<polygon style="fill:#FFFFFF;" points="265.542,233.62 265.562,233.621 265.542,233.622 265.541,233.621 265.542,233.62 
															"/>
						</g>
					</g>
				</g>
				<g>
					<g>
						<g>
							<g>
								<polygon style="fill:#FFFFFF;" points="81.469,228.922 81.49,228.921 81.491,228.922 81.49,228.923 81.49,228.923 								
									"/>
								<path style="fill:#FFFFFF;" d="M82.712,228.859l0.041-0.001c0.035-0.002,0.065,0.025,0.067,0.061
									c0.001,0.035-0.026,0.065-0.061,0.066c-0.002,0.001-0.004,0.001-0.006,0l-0.041-0.001c-0.034-0.001-0.061-0.031-0.06-0.065
									C82.655,228.887,82.681,228.861,82.712,228.859z"/>
								<path style="fill:#FFFFFF;" d="M83.976,228.811l0.041-0.001c0.062-0.003,0.113,0.046,0.116,0.106
									c0.002,0.063-0.046,0.113-0.107,0.116c-0.002,0-0.005,0-0.008,0l-0.041-0.001c-0.06-0.003-0.108-0.054-0.106-0.114
									C83.873,228.86,83.92,228.815,83.976,228.811z"/>
								<path style="fill:#FFFFFF;" d="M85.24,228.765l0.04-0.002c0.087-0.002,0.161,0.066,0.165,0.153
									c0.003,0.087-0.065,0.161-0.153,0.165c-0.003,0-0.008,0-0.012,0l-0.04-0.002c-0.087-0.004-0.154-0.076-0.151-0.163
									C85.091,228.833,85.158,228.768,85.24,228.765z"/>
								<path style="fill:#FFFFFF;" d="M86.503,228.718l0.041-0.001c0.113-0.003,0.207,0.087,0.21,0.2
									c0.003,0.113-0.087,0.207-0.2,0.21c-0.003,0-0.006,0-0.009,0l-0.041-0.001c-0.113-0.002-0.202-0.096-0.199-0.209
									C86.306,228.808,86.395,228.72,86.503,228.718z"/>
								<path style="fill:#FFFFFF;" d="M87.767,228.688h0.041c0.129-0.004,0.236,0.1,0.239,0.229
									c0.003,0.129-0.099,0.236-0.229,0.238c-0.003,0-0.007,0-0.011,0h-0.041c-0.128-0.004-0.23-0.109-0.228-0.238
									C87.541,228.792,87.643,228.692,87.767,228.688z"/>
								<path style="fill:#FFFFFF;" d="M89.03,228.66l0.041-0.001c0.146-0.004,0.266,0.111,0.269,0.257
									c0.003,0.145-0.111,0.265-0.256,0.268c-0.004,0-0.008,0-0.012,0l-0.041-0.001c-0.144-0.003-0.259-0.123-0.256-0.268
									C88.778,228.775,88.891,228.663,89.03,228.66z"/>
								<path style="fill:#FFFFFF;" d="M90.294,228.632l0.041-0.002c0.161-0.004,0.294,0.125,0.298,0.285
									c0.003,0.161-0.124,0.295-0.285,0.299c-0.004,0-0.009,0-0.013,0l-0.041-0.002c-0.16-0.003-0.287-0.137-0.284-0.297
									C90.013,228.759,90.14,228.636,90.294,228.632z"/>
								<path style="fill:#FFFFFF;" d="M91.557,228.602l0.041-0.001c0.177-0.004,0.323,0.136,0.328,0.313
									c0.004,0.176-0.136,0.323-0.313,0.327c-0.005,0-0.01,0-0.015,0l-0.041-0.001c-0.176-0.004-0.316-0.15-0.312-0.326
									C91.249,228.743,91.388,228.606,91.557,228.602z"/>
								<path style="fill:#FFFFFF;" d="M92.821,228.576l0.041-0.001c0.191-0.001,0.347,0.152,0.349,0.344
									c0.001,0.191-0.152,0.348-0.344,0.35c-0.001,0-0.004,0-0.005,0l-0.041-0.001c-0.191-0.001-0.345-0.157-0.343-0.349
									C92.479,228.729,92.632,228.577,92.821,228.576z"/>
								<path style="fill:#FFFFFF;" d="M94.085,228.566h0.04c0.197-0.001,0.357,0.156,0.358,0.352
									c0.002,0.197-0.157,0.357-0.353,0.358c-0.001,0-0.004,0-0.005,0h-0.04c-0.196-0.001-0.354-0.162-0.353-0.358
									C93.733,228.725,93.891,228.568,94.085,228.566z"/>
								<path style="fill:#FFFFFF;" d="M95.348,228.558l0.041-0.001c0.202-0.001,0.366,0.161,0.368,0.362
									c0.002,0.201-0.161,0.367-0.362,0.368c-0.001,0-0.004,0-0.004,0l-0.042-0.001c-0.202-0.001-0.364-0.166-0.362-0.367
									C94.987,228.72,95.149,228.559,95.348,228.558z"/>
								<path style="fill:#FFFFFF;" d="M96.611,228.548h0.041c0.207-0.002,0.376,0.164,0.377,0.371
									c0.002,0.207-0.165,0.376-0.372,0.377c-0.001,0-0.004,0-0.005,0h-0.041c-0.207-0.002-0.373-0.17-0.372-0.377
									C96.242,228.714,96.407,228.55,96.611,228.548z"/>
								<path style="fill:#FFFFFF;" d="M97.875,228.538h0.041c0.212-0.002,0.386,0.169,0.387,0.381
									c0.001,0.213-0.169,0.386-0.381,0.387c-0.001,0-0.004,0-0.006,0h-0.041c-0.212-0.002-0.382-0.175-0.381-0.387
									C97.496,228.709,97.666,228.54,97.875,228.538z"/>
								<path style="fill:#FFFFFF;" d="M99.139,228.528h0.04c0.218-0.002,0.395,0.174,0.396,0.391
									c0.002,0.217-0.173,0.395-0.391,0.396c-0.001,0-0.004,0-0.006,0h-0.04c-0.217-0.002-0.392-0.18-0.391-0.396
									C98.75,228.704,98.924,228.53,99.139,228.528z"/>
								<path style="fill:#FFFFFF;" d="M100.402,228.518h0.041c0.223-0.002,0.404,0.178,0.406,0.4
									c0.002,0.223-0.178,0.404-0.4,0.406c-0.001,0-0.005,0-0.006,0h-0.041c-0.222-0.002-0.401-0.184-0.399-0.406
									C100.004,228.698,100.183,228.52,100.402,228.518z"/>
								<path style="fill:#FFFFFF;" d="M101.666,228.518l0.041,0.001c0.223,0.001,0.402,0.184,0.4,0.406
									c-0.002,0.221-0.181,0.398-0.4,0.4l-0.041,0.001c-0.223,0.001-0.405-0.179-0.407-0.401
									c-0.002-0.223,0.178-0.405,0.401-0.407C101.66,228.518,101.665,228.518,101.666,228.518z"/>
								<path style="fill:#FFFFFF;" d="M102.929,228.527l0.041,0.001c0.218,0.001,0.393,0.179,0.392,0.396
									c-0.002,0.216-0.177,0.391-0.392,0.391l-0.041,0.001c-0.218,0.001-0.396-0.174-0.397-0.392
									c-0.002-0.218,0.173-0.396,0.392-0.398C102.924,228.527,102.928,228.527,102.929,228.527z"/>
								<path style="fill:#FFFFFF;" d="M104.193,228.537h0.04c0.212,0.001,0.383,0.175,0.382,0.388
									c-0.002,0.211-0.172,0.38-0.382,0.382h-0.04c-0.213,0.002-0.387-0.169-0.388-0.382c-0.001-0.213,0.169-0.387,0.382-0.388
									C104.188,228.537,104.191,228.537,104.193,228.537z"/>
								<path style="fill:#FFFFFF;" d="M105.456,228.546l0.041,0.001c0.207,0.001,0.373,0.171,0.372,0.378
									c-0.002,0.205-0.168,0.371-0.372,0.372l-0.041,0.001c-0.207,0.001-0.377-0.166-0.378-0.373
									c-0.002-0.207,0.165-0.377,0.372-0.379C105.452,228.546,105.455,228.546,105.456,228.546z"/>
								<path style="fill:#FFFFFF;" d="M106.72,228.556h0.04c0.202,0.002,0.364,0.167,0.363,0.369
									c-0.002,0.199-0.164,0.361-0.363,0.363h-0.04c-0.202,0.001-0.367-0.162-0.369-0.363c-0.001-0.202,0.161-0.367,0.363-0.369
									C106.715,228.556,106.718,228.556,106.72,228.556z"/>
								<path style="fill:#FFFFFF;" d="M107.983,228.565h0.041c0.197,0.002,0.355,0.162,0.354,0.359
									c-0.002,0.194-0.159,0.352-0.354,0.354h-0.041c-0.197,0.002-0.357-0.157-0.359-0.354c-0.002-0.197,0.157-0.357,0.354-0.359
									C107.979,228.565,107.982,228.565,107.983,228.565z"/>
								<path style="fill:#FFFFFF;" d="M109.247,228.575h0.041c0.191,0.002,0.345,0.158,0.344,0.35
									c-0.002,0.189-0.155,0.342-0.344,0.344h-0.041c-0.191,0.002-0.348-0.152-0.349-0.344c-0.001-0.191,0.153-0.348,0.344-0.35
									C109.243,228.575,109.246,228.575,109.247,228.575z"/>
								<path style="fill:#FFFFFF;" d="M110.51,228.6h0.041c0.177,0.004,0.317,0.151,0.313,0.328
									c-0.004,0.172-0.144,0.311-0.313,0.314h-0.041c-0.178,0.004-0.325-0.137-0.329-0.314c-0.004-0.178,0.137-0.324,0.314-0.328
									C110.5,228.6,110.506,228.6,110.51,228.6z"/>
								<path style="fill:#FFFFFF;" d="M111.774,228.629l0.041,0.001c0.161,0.004,0.289,0.138,0.285,0.299
									c-0.004,0.156-0.131,0.281-0.285,0.285l-0.041,0.001c-0.162,0.003-0.296-0.124-0.3-0.286
									c-0.003-0.162,0.125-0.296,0.286-0.3C111.765,228.629,111.77,228.629,111.774,228.629z"/>
								<path style="fill:#FFFFFF;" d="M113.038,228.658l0.041,0.001c0.145,0.003,0.26,0.123,0.257,0.269
									c-0.003,0.142-0.117,0.253-0.257,0.257l-0.041,0.001c-0.146,0.003-0.267-0.112-0.27-0.258
									c-0.003-0.146,0.112-0.267,0.258-0.27C113.029,228.658,113.034,228.658,113.038,228.658z"/>
								<path style="fill:#FFFFFF;" d="M114.301,228.686l0.04,0.002c0.129,0.002,0.232,0.109,0.229,0.238
									c-0.003,0.126-0.104,0.227-0.229,0.229l-0.04,0.002c-0.13,0.002-0.237-0.1-0.24-0.23c-0.003-0.129,0.1-0.236,0.23-0.24
									C114.294,228.686,114.298,228.686,114.301,228.686z"/>
								<path style="fill:#FFFFFF;" d="M115.564,228.716l0.041,0.001c0.113,0.003,0.203,0.097,0.2,0.21
									c-0.002,0.109-0.092,0.197-0.2,0.2l-0.041,0.001c-0.114,0.002-0.207-0.088-0.211-0.201
									c-0.002-0.113,0.087-0.208,0.201-0.211C115.558,228.716,115.562,228.716,115.564,228.716z"/>
								<path style="fill:#FFFFFF;" d="M116.828,228.763l0.04,0.002c0.087,0.002,0.155,0.076,0.152,0.163
									c-0.003,0.083-0.07,0.149-0.152,0.151l-0.04,0.002c-0.088,0.004-0.162-0.064-0.166-0.153
									c-0.003-0.088,0.066-0.162,0.153-0.165C116.82,228.763,116.824,228.763,116.828,228.763z"/>
								<path style="fill:#FFFFFF;" d="M118.092,228.809l0.041,0.002c0.061,0.002,0.108,0.054,0.106,0.114
									c-0.002,0.058-0.049,0.104-0.106,0.106l-0.041,0.002c-0.062,0.002-0.114-0.047-0.116-0.107
									c-0.002-0.063,0.046-0.115,0.108-0.117C118.086,228.809,118.089,228.809,118.092,228.809z"/>
								<path style="fill:#FFFFFF;" d="M119.355,228.858l0.041,0.001c0.035,0.001,0.062,0.03,0.06,0.066
									c-0.001,0.033-0.027,0.059-0.06,0.059l-0.041,0.002c-0.035,0.001-0.065-0.026-0.067-0.061
									c-0.001-0.035,0.026-0.066,0.062-0.066C119.351,228.858,119.354,228.858,119.355,228.858z"/>
								<polygon style="fill:#FFFFFF;" points="120.619,228.921 120.639,228.922 120.619,228.923 120.618,228.922 120.618,228.921 
																	"/>
							</g>
						</g>
						<g>
							<g>
								<polygon style="fill:#FFFFFF;" points="223.387,228.922 223.407,228.921 223.408,228.922 223.407,228.923 223.407,228.923 
																	"/>
								<path style="fill:#FFFFFF;" d="M224.644,228.863l0.041-0.002c0.033-0.001,0.061,0.024,0.063,0.058
									c0.001,0.033-0.024,0.063-0.058,0.064c-0.002,0-0.004,0-0.006,0l-0.041-0.003c-0.032-0.001-0.058-0.028-0.056-0.061
									C224.589,228.889,224.614,228.864,224.644,228.863z"/>
								<path style="fill:#FFFFFF;" d="M225.922,228.817l0.041-0.001c0.058-0.001,0.107,0.044,0.109,0.102
									c0.002,0.058-0.044,0.106-0.102,0.108c-0.002,0-0.005,0-0.007,0l-0.041-0.001c-0.057-0.002-0.103-0.051-0.1-0.107
									C225.823,228.863,225.868,228.819,225.922,228.817z"/>
								<path style="fill:#FFFFFF;" d="M227.2,228.774l0.041-0.002c0.083-0.004,0.152,0.061,0.155,0.145
									c0.003,0.082-0.062,0.152-0.145,0.154c-0.003,0-0.007,0-0.01,0l-0.041-0.001c-0.082-0.003-0.146-0.071-0.143-0.153
									C227.06,228.839,227.123,228.776,227.2,228.774z"/>
								<path style="fill:#FFFFFF;" d="M228.478,228.729l0.041-0.002c0.107-0.004,0.197,0.08,0.201,0.188
									c0.004,0.107-0.08,0.197-0.188,0.201c-0.004,0-0.009,0-0.014,0l-0.041-0.002c-0.107-0.004-0.189-0.093-0.186-0.199
									C228.296,228.813,228.378,228.733,228.478,228.729z"/>
								<path style="fill:#FFFFFF;" d="M229.756,228.698l0.041-0.002c0.125-0.002,0.228,0.097,0.23,0.221
									c0.002,0.125-0.096,0.228-0.22,0.23c-0.003,0-0.007,0-0.01,0l-0.041-0.002c-0.124-0.002-0.222-0.104-0.22-0.229
									C229.539,228.796,229.637,228.7,229.756,228.698z"/>
								<path style="fill:#FFFFFF;" d="M231.034,228.671l0.042-0.002c0.139-0.002,0.254,0.108,0.257,0.248
									c0.003,0.139-0.107,0.254-0.246,0.258c-0.004,0-0.008,0-0.011,0l-0.042-0.002c-0.139-0.002-0.249-0.117-0.246-0.256
									C230.791,228.782,230.9,228.673,231.034,228.671z"/>
								<path style="fill:#FFFFFF;" d="M232.312,228.643l0.042-0.001c0.154-0.003,0.282,0.119,0.285,0.273s-0.119,0.282-0.273,0.285
									c-0.003,0-0.008,0-0.012,0l-0.042-0.001c-0.153-0.004-0.275-0.131-0.273-0.284
									C232.043,228.767,232.164,228.647,232.312,228.643z"/>
								<path style="fill:#FFFFFF;" d="M233.59,228.616h0.041c0.169-0.004,0.31,0.13,0.313,0.299c0.003,0.17-0.13,0.31-0.3,0.313
									c-0.004,0.001-0.009,0.001-0.013,0h-0.041c-0.169-0.004-0.303-0.144-0.299-0.313
									C233.295,228.751,233.428,228.62,233.59,228.616z"/>
								<path style="fill:#FFFFFF;" d="M234.869,228.589h0.041c0.184-0.004,0.336,0.142,0.34,0.326
									c0.004,0.184-0.142,0.336-0.326,0.34c-0.004,0-0.01,0-0.014,0h-0.041c-0.184-0.004-0.33-0.156-0.326-0.34
									C234.546,228.736,234.691,228.593,234.869,228.589z"/>
								<path style="fill:#FFFFFF;" d="M236.146,228.572h0.041c0.193-0.001,0.351,0.153,0.353,0.347
									c0.001,0.193-0.154,0.352-0.348,0.352c-0.001,0-0.004,0-0.005,0h-0.041c-0.193-0.001-0.349-0.159-0.347-0.352
									C235.801,228.727,235.956,228.573,236.146,228.572z"/>
								<path style="fill:#FFFFFF;" d="M237.424,228.563h0.042c0.198-0.002,0.36,0.158,0.361,0.355
									c0.002,0.199-0.158,0.36-0.356,0.361c-0.001,0-0.004,0-0.005,0h-0.042c-0.198-0.002-0.357-0.163-0.356-0.361
									C237.07,228.724,237.229,228.565,237.424,228.563z"/>
								<path style="fill:#FFFFFF;" d="M238.703,228.555l0.041-0.001c0.203-0.001,0.369,0.162,0.37,0.365
									c0.002,0.203-0.162,0.369-0.365,0.371c-0.001,0-0.004,0-0.005,0l-0.041-0.001c-0.203-0.001-0.366-0.167-0.365-0.37
									C238.339,228.718,238.502,228.556,238.703,228.555z"/>
								<path style="fill:#FFFFFF;" d="M239.98,228.546h0.042c0.208-0.002,0.378,0.166,0.379,0.373
									c0.002,0.209-0.166,0.378-0.374,0.379c-0.001,0-0.004,0-0.005,0h-0.042c-0.208-0.001-0.375-0.171-0.374-0.379
									C239.608,228.714,239.775,228.547,239.98,228.546z"/>
								<path style="fill:#FFFFFF;" d="M241.259,228.536h0.041c0.213-0.002,0.387,0.17,0.388,0.383
									c0.002,0.213-0.17,0.387-0.383,0.389c-0.001,0-0.004,0-0.005,0h-0.041c-0.213-0.002-0.384-0.176-0.383-0.389
									C240.878,228.708,241.048,228.538,241.259,228.536z"/>
								<path style="fill:#FFFFFF;" d="M242.537,228.527h0.041c0.218-0.001,0.396,0.174,0.397,0.392
									c0.002,0.219-0.174,0.396-0.392,0.398c-0.001,0-0.004,0-0.006,0h-0.041c-0.218-0.001-0.393-0.18-0.392-0.398
									C242.146,228.703,242.322,228.529,242.537,228.527z"/>
								<path style="fill:#FFFFFF;" d="M243.815,228.518h0.041c0.223-0.002,0.405,0.178,0.406,0.4
									c0.002,0.223-0.178,0.404-0.4,0.406c-0.001,0-0.005,0-0.006,0h-0.041c-0.223-0.002-0.402-0.184-0.4-0.406
									C243.416,228.698,243.595,228.52,243.815,228.518z"/>
								<path style="fill:#FFFFFF;" d="M245.093,228.518h0.041c0.223,0.001,0.402,0.185,0.401,0.407
									c-0.001,0.221-0.181,0.399-0.401,0.401h-0.041c-0.223,0.002-0.406-0.179-0.407-0.401c-0.001-0.224,0.178-0.406,0.401-0.407
									C245.088,228.518,245.091,228.518,245.093,228.518z"/>
								<path style="fill:#FFFFFF;" d="M246.371,228.526h0.041c0.218,0.002,0.394,0.18,0.392,0.398
									c-0.001,0.217-0.177,0.391-0.392,0.393h-0.041c-0.218,0.002-0.396-0.174-0.398-0.393c-0.001-0.219,0.174-0.396,0.393-0.398
									C246.367,228.526,246.37,228.526,246.371,228.526z"/>
								<path style="fill:#FFFFFF;" d="M247.649,228.536h0.041c0.213,0.001,0.385,0.176,0.384,0.389
									c-0.002,0.211-0.173,0.382-0.384,0.383h-0.041c-0.213,0.002-0.388-0.17-0.389-0.383c-0.001-0.214,0.17-0.388,0.384-0.389
									C247.645,228.536,247.648,228.536,247.649,228.536z"/>
								<path style="fill:#FFFFFF;" d="M248.927,228.544l0.042,0.001c0.208,0.001,0.376,0.171,0.374,0.38
									c-0.002,0.206-0.169,0.373-0.374,0.374l-0.042,0.001c-0.208,0.001-0.378-0.167-0.38-0.375
									c-0.001-0.209,0.166-0.379,0.374-0.381C248.923,228.544,248.926,228.544,248.927,228.544z"/>
								<path style="fill:#FFFFFF;" d="M250.205,228.554h0.041c0.204,0.002,0.367,0.168,0.366,0.371
									c-0.001,0.201-0.165,0.363-0.366,0.365h-0.041c-0.204,0.002-0.37-0.162-0.371-0.365c-0.001-0.203,0.163-0.37,0.366-0.371
									C250.201,228.554,250.204,228.554,250.205,228.554z"/>
								<path style="fill:#FFFFFF;" d="M251.483,228.563l0.042,0.001c0.198,0,0.358,0.162,0.356,0.361
									c-0.002,0.196-0.161,0.354-0.356,0.355l-0.042,0.001c-0.198,0.001-0.36-0.158-0.362-0.356
									c-0.001-0.199,0.158-0.361,0.357-0.362C251.479,228.563,251.482,228.563,251.483,228.563z"/>
								<path style="fill:#FFFFFF;" d="M252.761,228.571h0.041c0.193,0.002,0.349,0.16,0.348,0.354
									c-0.001,0.191-0.157,0.346-0.348,0.348h-0.041c-0.193,0.002-0.352-0.154-0.353-0.348c-0.001-0.193,0.154-0.352,0.348-0.354
									C252.757,228.571,252.76,228.571,252.761,228.571z"/>
								<path style="fill:#FFFFFF;" d="M254.039,228.587l0.042,0.001c0.185,0.004,0.331,0.157,0.327,0.341
									c-0.004,0.18-0.149,0.323-0.327,0.327l-0.042,0.001c-0.185,0.004-0.338-0.143-0.342-0.328
									c-0.004-0.185,0.143-0.338,0.328-0.342C254.029,228.587,254.035,228.587,254.039,228.587z"/>
								<path style="fill:#FFFFFF;" d="M255.317,228.614l0.042,0.001c0.169,0.003,0.304,0.143,0.3,0.313
									c-0.003,0.164-0.137,0.297-0.3,0.3l-0.042,0.001c-0.17,0.004-0.311-0.131-0.314-0.301c-0.003-0.17,0.131-0.311,0.301-0.314
									C255.308,228.614,255.313,228.614,255.317,228.614z"/>
								<path style="fill:#FFFFFF;" d="M256.595,228.642h0.041c0.155,0.004,0.277,0.133,0.274,0.286
									c-0.003,0.15-0.125,0.27-0.274,0.274h-0.041c-0.155,0.004-0.283-0.119-0.287-0.274c-0.003-0.155,0.12-0.283,0.275-0.286
									C256.587,228.642,256.592,228.642,256.595,228.642z"/>
								<path style="fill:#FFFFFF;" d="M257.874,228.669h0.041c0.139,0.004,0.25,0.119,0.247,0.258
									c-0.003,0.137-0.113,0.244-0.247,0.248h-0.041c-0.14,0.004-0.256-0.107-0.259-0.248c-0.003-0.139,0.108-0.256,0.248-0.258
									C257.866,228.669,257.87,228.669,257.874,228.669z"/>
								<path style="fill:#FFFFFF;" d="M259.151,228.696h0.042c0.124,0.003,0.223,0.105,0.22,0.23
									c-0.002,0.121-0.1,0.217-0.22,0.221h-0.042c-0.125,0.003-0.228-0.096-0.231-0.221c-0.003-0.125,0.097-0.229,0.221-0.23
									C259.145,228.696,259.148,228.696,259.151,228.696z"/>
								<path style="fill:#FFFFFF;" d="M260.429,228.727l0.042,0.001c0.107,0.004,0.191,0.094,0.187,0.201
									c-0.004,0.102-0.087,0.184-0.187,0.188l-0.042,0.001c-0.107,0.004-0.198-0.081-0.202-0.188
									c-0.003-0.107,0.081-0.198,0.188-0.202C260.421,228.727,260.425,228.727,260.429,228.727z"/>
								<path style="fill:#FFFFFF;" d="M261.708,228.77l0.041,0.002c0.082,0.003,0.147,0.072,0.144,0.154
									c-0.002,0.079-0.066,0.142-0.144,0.145l-0.041,0.002c-0.083,0.002-0.153-0.063-0.156-0.146
									c-0.003-0.083,0.063-0.152,0.146-0.156C261.7,228.77,261.704,228.77,261.708,228.77z"/>
								<path style="fill:#FFFFFF;" d="M262.985,228.815l0.041,0.002c0.058,0.002,0.103,0.051,0.101,0.107
									c-0.002,0.057-0.047,0.1-0.101,0.102l-0.041,0.002c-0.059,0.002-0.108-0.044-0.11-0.103
									c-0.002-0.059,0.044-0.108,0.103-0.11C262.98,228.815,262.983,228.815,262.985,228.815z"/>
								<path style="fill:#FFFFFF;" d="M264.264,228.861l0.041,0.001c0.033,0.002,0.058,0.029,0.056,0.063
									c-0.001,0.03-0.026,0.055-0.056,0.057l-0.041,0.002c-0.034,0.001-0.062-0.025-0.064-0.059
									c-0.001-0.033,0.025-0.063,0.058-0.064C264.26,228.86,264.262,228.86,264.264,228.861z"/>
								<polygon style="fill:#FFFFFF;" points="265.542,228.921 265.562,228.922 265.542,228.923 265.541,228.922 265.541,228.921 
																	"/>
							</g>
						</g>
					</g>
				</g>
			</g>
			<g>
				<path style="fill:#FFFFFF;" d="M134.773,209.307h8.969v35.516h8.789l-1.505,8.126h-16.253V209.307z"/>
				<path style="fill:#FFFFFF;" d="M163.907,247.53l-0.783,5.418h-8.789l7.886-43.642h9.33l7.886,43.642h-8.788l-0.783-5.418
					H163.907z M164.87,240.608h4.033l-1.986-15.471L164.87,240.608z"/>
				<path style="fill:#FFFFFF;" d="M205.202,209.307h8.909l-6.862,43.642h-7.946l-3.611-22.754l-3.552,22.754h-7.946l-6.862-43.642
					h8.909l2.769,25.402l3.552-25.402h6.32l3.492,25.402L205.202,209.307z"/>
			</g>
		</g>
		<g>
			<g>
				<g>
					<path style="fill:#FFFFFF;" d="M120.679,276.323h-0.84l0.042,0.124l0.193,0.151l0.11,0.275h-4.131l-0.11-0.275l0.179-0.275
						h-3.594l-0.041,0.124l0.11,0.151l-0.097,0.275h-4.131l0.097-0.275l0.909-0.689l3.002-9.09l-0.454-0.689l0.082-0.275h4.131
						l0.082,0.275l-0.427,0.689l3.347,9.09l0.385,0.275l-3.346-9.075l0.427-0.703h0.262l0.096,0.275l-0.344,0.552h1.377l0.069,0.138
						h-1.529l0.193,0.551h1.294l-0.069,0.138h-1.17l0.206,0.551h0.84l0.055,0.138h-0.84l0.193,0.551h0.84l0.055,0.138h-0.84
						l0.193,0.551h0.84l0.069,0.138h-0.84l0.193,0.551h0.84l0.055,0.138h-0.84l0.193,0.551h0.84l0.069,0.138h-0.84l0.193,0.551h0.84
						l0.055,0.138h-0.84l0.193,0.551h0.84l0.069,0.138h-0.84l0.193,0.551h0.84l0.055,0.139h-0.84l0.206,0.564h0.84l0.055,0.138
						h-0.84l0.193,0.537h0.84l0.055,0.138h-0.84l0.192,0.551h0.84l0.055,0.138h-0.84l0.206,0.551h0.84L120.679,276.323z
						 M113.146,277.012h-0.275l0.069,0.138l-0.082,0.275h-4.132l0.083-0.275h3.87l0.096-0.275h0.413L113.146,277.012z
						 M113.38,278.389h-4.131l0.042-0.138h4.131L113.38,278.389z M113.16,277.7h-3.236l0.275-0.138h2.768L113.16,277.7z
						 M112.127,275.91l0.193,0.275l0.358-1.102h3.401l-0.096-0.275h-3.498L112.127,275.91z M112.76,275.635l-0.179,0.551h3.622
						l0.179-0.275l-0.097-0.275H112.76z M112.857,275.359l-0.055,0.138h3.429l-0.055-0.138H112.857z M114.138,269.823l-0.744,2.23
						h0.289l0.606-1.831L114.138,269.823z M113.945,272.054h1.033l-0.207-0.551h-0.647L113.945,272.054z M114.344,270.814
						l-0.179,0.551h0.551l-0.207-0.551H114.344z M114.454,270.677l-0.027-0.083l-0.027,0.083H114.454z M120.927,277.012h-0.275
						l0.179,0.138l0.096,0.275h-4.131l-0.096-0.275h3.87l-0.11-0.275h0.413L120.927,277.012z M122.111,278.389h-4.131l-0.042-0.138
						h4.131L122.111,278.389z M121.423,277.7h-3.236l0.179-0.138h2.768L121.423,277.7z"/>
					<path style="fill:#FFFFFF;" d="M129.396,272.742h0.84v0.138h-0.84v0.551h0.84v0.139h-0.84v0.564h0.84v0.138h-0.84v0.537h0.84
						v0.138h-0.84v0.551h0.84v0.138h-0.84v0.551h0.84v0.138h-0.84v0.124l0.151,0.151v0.275h-4.131v-0.275l0.689-0.689v-9.09
						l-0.689-0.689v-0.275h3.443l0.303,0.51h0.537l0.192,0.316l0.331,0.552h0.84l0.082,0.138h-0.84l0.344,0.551h0.84l0.069,0.138
						h-0.84l0.331,0.551h0.84l0.082,0.138h-0.84l0.331,0.551h0.84l0.082,0.138h-0.84l0.331,0.551h0.84l0.083,0.138h-0.84
						l0.331,0.551h0.702v-3.856l-0.688-0.689v-0.275h4.131v0.275l-0.688,0.689v9.09l0.275,0.275v-9.075l0.689-0.703h0.262v0.275
						l-0.551,0.552h1.377l0.014,0.138h-1.529v0.551h1.294l-0.124,0.138h-1.171v0.551h0.84v0.138h-0.84v0.551h0.84v0.138h-0.84v0.551
						h0.84v0.138h-0.84v0.551h0.84v0.138h-0.84v0.551h0.84v0.138h-0.84v0.551h0.84v0.138h-0.84v0.551h0.84v0.138h-0.84v0.551h0.84
						v0.139h-0.84v0.564h0.84v0.138h-0.84v0.537h0.84v0.138h-0.84v0.551h0.84v0.138h-0.84v0.551h0.84v0.138h-0.84v0.124l0.151,0.151
						v0.275h-3.443l-2.837-4.683h-0.757V272.742z M130.237,277.012h-0.276l0.124,0.138v0.275h-4.131v-0.275h3.87v-0.275h0.414
						V277.012z M130.925,278.389h-4.132v-0.138h4.132V278.389z M130.484,277.7h-3.236l0.221-0.138h2.768L130.484,277.7z
						 M128.859,275.91l0.275,0.275v-5.701l-0.275-0.455V275.91z M132.991,272.742v-0.454l-2.947-4.916l-0.413-0.689h-0.193
						l-0.042,0.069L132.991,272.742z M129.658,271.365l-0.262-0.44v0.44H129.658z M129.396,271.503v0.551h0.675l-0.331-0.551
						H129.396z M132.371,270.814l0.331,0.551h0.289v-0.551H132.371z M132.77,271.503l0.22,0.358v-0.358H132.77z M137.123,277.012
						h-0.275l0.124,0.138v0.275h-3.704v-0.275h3.443v-0.275h0.414V277.012z M137.37,277.7h-3.002v-0.138h2.754L137.37,277.7z
						 M137.811,278.389h-3.443v-0.138h3.443V278.389z"/>
					<path style="fill:#FFFFFF;" d="M141.653,277.149h5.564c0.817,0,1.489-0.11,2.017-0.33c0.528-0.221,0.943-0.522,1.247-0.902
						c0.303-0.381,0.514-0.819,0.633-1.315c0.119-0.496,0.179-1.018,0.179-1.569c0-0.505-0.025-1.024-0.076-1.557
						c-0.051-0.532-0.143-1.054-0.275-1.563c-0.133-0.509-0.317-1-0.551-1.474c-0.234-0.473-0.535-0.901-0.902-1.287
						c0.459,0.551,0.829,1.285,1.109,2.203c0.28,0.918,0.42,2.048,0.42,3.388c0,1.451-0.356,2.502-1.067,3.154
						c-0.711,0.651-1.714,0.978-3.009,0.978h-5.825v-0.275l0.688-0.689v-9.09l-0.688-0.689v-0.275h5.825
						c0.386,0,0.767,0.076,1.143,0.227c0.376,0.151,0.73,0.384,1.061,0.695c0.321,0.239,0.601,0.515,0.84,0.826
						c0.238,0.313,0.45,0.647,0.633,1.006h0.151l0.151,0.138h-0.234c0.046,0.095,0.087,0.189,0.124,0.284
						c0.037,0.095,0.073,0.184,0.11,0.267h0.372l0.069,0.138h-0.386c0.037,0.092,0.069,0.184,0.097,0.275
						c0.027,0.092,0.055,0.184,0.083,0.275h0.482l0.055,0.138h-0.496c0.027,0.092,0.05,0.184,0.069,0.275
						c0.018,0.092,0.036,0.184,0.055,0.275h0.579l0.041,0.138h-0.592c0.018,0.092,0.034,0.184,0.048,0.275
						c0.014,0.092,0.03,0.184,0.048,0.275h0.634l0.041,0.138h-0.661c0.009,0.092,0.021,0.184,0.035,0.275
						c0.014,0.092,0.025,0.184,0.034,0.275h0.703l0.014,0.138h-0.702c0.009,0.092,0.014,0.184,0.014,0.275c0,0.092,0,0.185,0,0.275
						h0.757l0.014,0.138h-0.771c0,0.037,0.002,0.078,0.007,0.124c0.004,0.046,0.007,0.092,0.007,0.138s-0.002,0.095-0.007,0.145
						c-0.005,0.051-0.007,0.1-0.007,0.145h0.813l0.014,0.139h-0.826c-0.009,0.092-0.016,0.184-0.021,0.275
						c-0.005,0.092-0.017,0.188-0.035,0.289h0.895v0.138h-0.909c-0.009,0.092-0.025,0.181-0.048,0.269
						c-0.023,0.087-0.043,0.177-0.062,0.268h1.005l-0.014,0.138h-1.033c-0.055,0.184-0.124,0.367-0.207,0.551h1.157l-0.028,0.138
						h-1.198c-0.046,0.092-0.099,0.184-0.158,0.275s-0.126,0.184-0.2,0.275h1.419l-0.069,0.138h-1.46
						c-0.092,0.101-0.198,0.199-0.317,0.296c-0.12,0.097-0.248,0.182-0.386,0.255h1.9l-0.082,0.138h-2.093
						c-0.275,0.129-0.587,0.23-0.936,0.303c-0.349,0.073-0.744,0.11-1.184,0.11h-5.839V277.149z M149.833,278.251l-0.826,0.138
						h-6.514v-0.138H149.833z M151.211,277.563l-0.193,0.138h-8.07l0.221-0.138H151.211z M144.559,268.611v5.522h0.275V268.9h2.204
						c0.092,0,0.188,0.007,0.289,0.021c0.101,0.014,0.197,0.044,0.289,0.09c-0.184-0.267-0.408-0.399-0.675-0.399H144.559z
						 M145.096,273.569v0.564h1.845c0.229,0,0.427-0.046,0.592-0.138c0.166-0.092,0.303-0.207,0.413-0.345
						c0.11-0.138,0.19-0.287,0.241-0.447c0.05-0.161,0.076-0.315,0.076-0.462c0-0.878-0.048-1.604-0.145-2.181
						c-0.097-0.576-0.232-1.024-0.406-1.345c-0.101-0.027-0.207-0.041-0.317-0.041c-0.11,0-0.216,0-0.317,0h-1.983v0.124h0.84v0.138
						h-0.84v0.551h0.84v0.138h-0.84v0.551h0.84v0.138h-0.84v0.551h0.84v0.138h-0.84v0.551h0.84v0.138h-0.84v0.551h0.84v0.138h-0.84
						v0.551h0.84v0.139H145.096z"/>
					<path style="fill:#FFFFFF;" d="M169.623,265.856c0.735,0,1.423,0.144,2.066,0.435c0.643,0.289,1.203,0.682,1.68,1.177
						c0.477,0.496,0.856,1.079,1.136,1.749c0.28,0.671,0.42,1.387,0.42,2.148c0,0.763-0.14,1.478-0.42,2.148
						c-0.28,0.67-0.659,1.253-1.136,1.749c-0.477,0.496-1.038,0.889-1.68,1.178c-0.643,0.289-1.331,0.434-2.066,0.434
						c-0.734,0-1.42-0.145-2.059-0.434c-0.638-0.289-1.198-0.682-1.68-1.178c-0.482-0.496-0.861-1.079-1.136-1.749
						c-0.275-0.67-0.413-1.386-0.413-2.148c0-0.762,0.138-1.478,0.413-2.148c0.275-0.67,0.654-1.253,1.136-1.749
						c0.482-0.495,1.042-0.888,1.68-1.177C168.202,266.001,168.888,265.856,169.623,265.856z M175.448,271.916v0.138h0.744
						l0.027,0.138h-0.785c-0.009,0.092-0.016,0.184-0.021,0.275c-0.004,0.092-0.011,0.185-0.021,0.275h0.881v0.138h-0.909
						c-0.009,0.092-0.025,0.185-0.048,0.275c-0.023,0.093-0.044,0.185-0.062,0.275h0.978l-0.014,0.139h-1.005
						c-0.027,0.092-0.057,0.185-0.089,0.282c-0.032,0.096-0.067,0.19-0.103,0.282h1.102l-0.041,0.138h-1.102
						c-0.046,0.101-0.094,0.192-0.145,0.275c-0.051,0.082-0.099,0.17-0.145,0.262h1.226l-0.042,0.138h-1.267
						c-0.064,0.092-0.128,0.184-0.192,0.275c-0.064,0.092-0.133,0.184-0.207,0.275h1.419l-0.069,0.138h-1.459
						c-0.166,0.192-0.358,0.376-0.579,0.551h1.694l-0.11,0.138h-1.749c-0.138,0.11-0.282,0.211-0.434,0.303
						c-0.151,0.092-0.305,0.175-0.461,0.248h2.148l-0.124,0.138h-2.328c-0.321,0.129-0.652,0.23-0.992,0.303
						c-0.34,0.073-0.679,0.11-1.019,0.11c-0.395,0-0.783-0.048-1.163-0.145c-0.381-0.097-0.742-0.228-1.081-0.393
						c-0.34-0.165-0.647-0.355-0.923-0.571c-0.275-0.216-0.509-0.443-0.702-0.682c0.404,0.44,0.915,0.804,1.536,1.088
						c0.62,0.284,1.31,0.427,2.072,0.427c0.836,0,1.584-0.168,2.245-0.503c0.661-0.335,1.216-0.767,1.666-1.294
						c0.45-0.528,0.794-1.118,1.033-1.77c0.238-0.652,0.358-1.295,0.358-1.929c0-0.808-0.154-1.551-0.462-2.23
						c-0.308-0.68-0.663-1.221-1.067-1.625c0.229,0.229,0.438,0.471,0.627,0.723c0.188,0.253,0.355,0.512,0.502,0.778h0.193
						l0.11,0.138h-0.221c0.046,0.092,0.09,0.184,0.131,0.275c0.042,0.092,0.081,0.184,0.117,0.275h0.331l0.096,0.138h-0.385
						c0.027,0.092,0.055,0.184,0.083,0.275c0.027,0.092,0.05,0.184,0.069,0.275h0.509l0.055,0.138h-0.537
						c0.037,0.175,0.064,0.358,0.083,0.551h0.634l0.041,0.138h-0.675c0.009,0.074,0.016,0.143,0.021,0.207
						C175.446,271.774,175.448,271.843,175.448,271.916z M167.089,271.365c0,0.423,0.076,0.819,0.227,1.191
						c0.152,0.372,0.37,0.686,0.654,0.943c-0.193-0.257-0.342-0.558-0.448-0.902c-0.105-0.344-0.158-0.677-0.158-0.998
						c0-0.404,0.066-0.772,0.2-1.102c0.133-0.331,0.317-0.615,0.551-0.854c0.234-0.238,0.503-0.422,0.806-0.551
						c0.303-0.128,0.629-0.192,0.978-0.192c0.624,0,1.175,0.211,1.652,0.634c-0.229-0.285-0.507-0.51-0.833-0.675
						c-0.326-0.166-0.691-0.248-1.095-0.248c-0.377,0-0.721,0.073-1.033,0.22c-0.312,0.147-0.578,0.345-0.799,0.593
						c-0.22,0.248-0.392,0.539-0.516,0.874C167.151,270.634,167.089,270.989,167.089,271.365z M169.623,274.12
						c0.376,0,0.721-0.074,1.033-0.221c0.312-0.147,0.581-0.345,0.806-0.592c0.225-0.248,0.399-0.54,0.523-0.875
						c0.124-0.335,0.186-0.69,0.186-1.067c0-0.459-0.083-0.872-0.248-1.239h-3.719c-0.138,0.184-0.243,0.367-0.316,0.551h1.501
						l-0.138,0.138h-1.418c-0.037,0.083-0.069,0.172-0.096,0.269c-0.028,0.097-0.051,0.19-0.069,0.282h1.143l-0.083,0.138h-1.074
						c-0.009,0.074-0.016,0.143-0.02,0.207c-0.005,0.065-0.007,0.133-0.007,0.206v0.138h0.895l-0.041,0.138h-0.854
						c0.009,0.092,0.023,0.184,0.041,0.275c0.019,0.092,0.041,0.185,0.069,0.275h0.675v0.138h-0.634
						c0.064,0.185,0.147,0.368,0.248,0.551h0.427l0.028,0.139h-0.372c0.018,0.018,0.032,0.036,0.042,0.055
						c0.009,0.018,0.018,0.032,0.027,0.041C168.599,273.968,169.081,274.12,169.623,274.12z M173.534,277.7h-5.15l-0.234-0.138
						h5.619L173.534,277.7z M169.003,269.438c-0.275,0.146-0.505,0.33-0.689,0.551h3.54c-0.055-0.1-0.12-0.207-0.193-0.316
						c-0.12-0.092-0.239-0.17-0.358-0.234H169.003z M170.16,269.176c-0.147,0-0.287,0.013-0.42,0.037
						c-0.133,0.025-0.264,0.054-0.393,0.087h1.639C170.738,269.217,170.463,269.176,170.16,269.176z M171.537,278.389h-1.198
						l-0.62-0.138h2.451L171.537,278.389z"/>
					<path style="fill:#FFFFFF;" d="M183.56,274.271v0.537h0.84v0.138h-0.84v0.551h0.84v0.138h-0.84v0.551h0.84v0.138h-0.84v0.124
						l0.151,0.151v0.275h-4.131v-0.275l0.688-0.689v-9.09l-0.688-0.689v-0.275h5.798c0.551,0,1.049,0.115,1.494,0.345
						c0.445,0.229,0.819,0.528,1.123,0.895c0.496,0.422,0.872,0.927,1.129,1.515h0.17l0.091,0.138h-0.206
						c0.037,0.092,0.067,0.184,0.09,0.275c0.023,0.092,0.044,0.184,0.062,0.275h0.454l0.069,0.138h-0.496
						c0.009,0.073,0.016,0.142,0.021,0.206c0.005,0.065,0.007,0.129,0.007,0.193c0,0.027-0.002,0.053-0.007,0.075
						c-0.004,0.023-0.007,0.049-0.007,0.076h0.7l0.056,0.138h-0.756c-0.009,0.092-0.016,0.184-0.02,0.275
						c-0.005,0.092-0.016,0.184-0.035,0.275h0.896v0.138h-0.909c-0.019,0.092-0.044,0.184-0.076,0.275
						c-0.032,0.092-0.067,0.184-0.103,0.275h1.06l-0.014,0.138h-1.115c-0.102,0.212-0.216,0.396-0.345,0.551h1.322l-0.055,0.138
						H188.6c-0.055,0.056-0.11,0.108-0.165,0.158c-0.055,0.051-0.11,0.1-0.165,0.145l0.082,0.247h1.377l-0.097,0.138h-1.239
						l0.193,0.551h0.84l0.042,0.139h-0.84l0.193,0.564h0.84l0.041,0.138h-0.84l0.179,0.537h0.84l0.055,0.138h-0.84l0.179,0.551h0.84
						l0.041,0.138h-0.84l0.193,0.551h0.84l0.041,0.138h-0.84l0.042,0.124l0.207,0.151l0.096,0.275h-4.131l-0.097-0.275l0.455-0.689
						l-0.551-1.639H183.56z M184.4,277.012h-0.276l0.124,0.138v0.275h-4.131v-0.275h3.87v-0.275h0.413V277.012z M185.088,278.389
						h-4.132v-0.138h4.132V278.389z M184.648,277.7h-3.236l0.221-0.138h2.768L184.648,277.7z M183.023,268.611v1.377h0.275v-1.102
						h2.314c0.156,0,0.284,0.022,0.385,0.068c-0.046-0.101-0.122-0.184-0.227-0.248c-0.106-0.064-0.236-0.096-0.393-0.096H183.023z
						 M183.023,275.91l0.275,0.275v-3.168h1.859l-0.097-0.275h-2.038V275.91z M186.094,269.3c0-0.059-0.005-0.101-0.014-0.125
						c-0.046-0.009-0.092-0.013-0.138-0.013c-0.046,0-0.092,0-0.139,0h-2.243v0.138H186.094z M183.56,269.438v0.551h1.818
						c0.422,0,0.652-0.184,0.688-0.551H183.56z M183.56,273.293v0.138h1.735l-0.055-0.138H183.56z M183.56,273.569v0.564h1.969
						l-0.193-0.564H183.56z M190.625,277.012h-0.275l0.165,0.138l0.097,0.275h-4.132l-0.096-0.275h3.87l-0.083-0.275h0.413
						L190.625,277.012z M189.247,276.185l-1.308-3.897c0.45-0.413,0.76-0.845,0.93-1.295c0.169-0.449,0.255-0.922,0.255-1.418
						c0-0.404-0.083-0.794-0.248-1.171c-0.165-0.376-0.386-0.721-0.661-1.032c0.422,0.605,0.633,1.248,0.633,1.928
						c0,0.588-0.11,1.113-0.33,1.577c-0.221,0.463-0.533,0.855-0.936,1.177l1.294,3.856L189.247,276.185z M191.781,278.389h-4.131
						l-0.055-0.138h4.131L191.781,278.389z M191.107,277.7h-3.236l0.165-0.138h2.768L191.107,277.7z"/>
					<path style="fill:#FFFFFF;" d="M195.624,277.149h5.564c0.817,0,1.489-0.11,2.017-0.33c0.528-0.221,0.943-0.522,1.247-0.902
						c0.303-0.381,0.514-0.819,0.633-1.315c0.119-0.496,0.179-1.018,0.179-1.569c0-0.505-0.025-1.024-0.076-1.557
						c-0.051-0.532-0.143-1.054-0.275-1.563c-0.133-0.509-0.317-1-0.551-1.474c-0.234-0.473-0.535-0.901-0.902-1.287
						c0.459,0.551,0.829,1.285,1.109,2.203c0.28,0.918,0.42,2.048,0.42,3.388c0,1.451-0.356,2.502-1.067,3.154
						c-0.711,0.651-1.714,0.978-3.009,0.978h-5.825v-0.275l0.688-0.689v-9.09l-0.688-0.689v-0.275h5.825
						c0.386,0,0.767,0.076,1.143,0.227c0.376,0.151,0.73,0.384,1.061,0.695c0.321,0.239,0.601,0.515,0.84,0.826
						c0.238,0.313,0.45,0.647,0.633,1.006h0.151l0.151,0.138h-0.234c0.046,0.095,0.087,0.189,0.124,0.284
						c0.037,0.095,0.073,0.184,0.11,0.267h0.372l0.069,0.138h-0.386c0.037,0.092,0.069,0.184,0.097,0.275
						c0.027,0.092,0.055,0.184,0.083,0.275h0.482l0.055,0.138h-0.496c0.027,0.092,0.05,0.184,0.069,0.275
						c0.018,0.092,0.036,0.184,0.055,0.275h0.579l0.041,0.138h-0.592c0.018,0.092,0.034,0.184,0.048,0.275
						c0.014,0.092,0.03,0.184,0.048,0.275h0.634l0.041,0.138h-0.661c0.009,0.092,0.021,0.184,0.035,0.275
						c0.014,0.092,0.025,0.184,0.034,0.275h0.703l0.014,0.138h-0.702c0.009,0.092,0.014,0.184,0.014,0.275c0,0.092,0,0.185,0,0.275
						h0.757l0.014,0.138h-0.771c0,0.037,0.002,0.078,0.007,0.124c0.004,0.046,0.007,0.092,0.007,0.138s-0.002,0.095-0.007,0.145
						c-0.005,0.051-0.007,0.1-0.007,0.145h0.813l0.014,0.139h-0.826c-0.009,0.092-0.016,0.184-0.021,0.275
						c-0.005,0.092-0.017,0.188-0.035,0.289h0.895v0.138h-0.909c-0.009,0.092-0.025,0.181-0.048,0.269
						c-0.023,0.087-0.043,0.177-0.062,0.268h1.005l-0.014,0.138h-1.033c-0.055,0.184-0.124,0.367-0.207,0.551h1.157l-0.028,0.138
						h-1.198c-0.046,0.092-0.099,0.184-0.158,0.275c-0.059,0.092-0.126,0.184-0.2,0.275h1.419l-0.069,0.138h-1.459
						c-0.092,0.101-0.198,0.199-0.317,0.296c-0.12,0.097-0.248,0.182-0.386,0.255h1.9l-0.082,0.138h-2.093
						c-0.275,0.129-0.587,0.23-0.936,0.303c-0.349,0.073-0.744,0.11-1.184,0.11h-5.839V277.149z M203.804,278.251l-0.826,0.138
						h-6.514v-0.138H203.804z M205.181,277.563l-0.193,0.138h-8.07l0.221-0.138H205.181z M198.529,268.611v5.522h0.275V268.9h2.204
						c0.092,0,0.188,0.007,0.289,0.021c0.101,0.014,0.197,0.044,0.289,0.09c-0.184-0.267-0.408-0.399-0.675-0.399H198.529z
						 M199.066,273.569v0.564h1.845c0.23,0,0.427-0.046,0.592-0.138c0.166-0.092,0.303-0.207,0.413-0.345
						c0.11-0.138,0.19-0.287,0.241-0.447c0.05-0.161,0.076-0.315,0.076-0.462c0-0.878-0.048-1.604-0.145-2.181
						c-0.097-0.576-0.232-1.024-0.406-1.345c-0.101-0.027-0.207-0.041-0.317-0.041c-0.11,0-0.216,0-0.317,0h-1.983v0.124h0.84v0.138
						h-0.84v0.551h0.84v0.138h-0.84v0.551h0.84v0.138h-0.84v0.551h0.84v0.138h-0.84v0.551h0.84v0.138h-0.84v0.551h0.84v0.138h-0.84
						v0.551h0.84v0.139H199.066z"/>
					<path style="fill:#FFFFFF;" d="M213.113,272.742v1.392h0.275v-1.088h3.388v-2.493h0.262v1.501h0.827v0.138h-0.827v0.551h0.827
						v0.138h-0.827v0.441h-3.388v0.109h4.214v0.139h-4.214v0.564h4.393l0.703-0.703h0.289v3.443h-9.365v-0.275l0.688-0.689v-9.09
						l-0.688-0.689v-0.275h8.346v2.755h-4.903v1.377h0.275V268.9h4.917v-2.493h0.262v1.516h0.813v0.138h-0.813v0.551h0.813v0.138
						h-0.813v0.427h-4.916v0.124h5.729v0.138h-5.729v0.551h5.729v0.138h-2.892v2.616H213.113z M220.398,277.012h-0.813v0.413h-9.378
						v-0.275h9.117v-3.167h0.262v1.515h0.813v0.138h-0.813v0.551h0.813v0.138h-0.813v0.551h0.813V277.012z M220.398,278.389h-9.351
						v-0.138h9.351V278.389z M220.398,277.7h-8.896l0.221-0.138h8.676V277.7z"/>
					<path style="fill:#FFFFFF;" d="M227.684,274.271v0.537h0.84v0.138h-0.84v0.551h0.84v0.138h-0.84v0.551h0.84v0.138h-0.84v0.124
						l0.151,0.151v0.275h-4.131v-0.275l0.688-0.689v-9.09l-0.688-0.689v-0.275h5.798c0.551,0,1.049,0.115,1.494,0.345
						c0.445,0.229,0.819,0.528,1.123,0.895c0.496,0.422,0.872,0.927,1.129,1.515h0.17l0.091,0.138h-0.206
						c0.037,0.092,0.067,0.184,0.09,0.275c0.022,0.092,0.043,0.184,0.062,0.275h0.454l0.069,0.138h-0.496
						c0.009,0.073,0.016,0.142,0.02,0.206c0.005,0.065,0.007,0.129,0.007,0.193c0,0.027-0.002,0.053-0.007,0.075
						c-0.004,0.023-0.007,0.049-0.007,0.076h0.7l0.056,0.138h-0.756c-0.009,0.092-0.016,0.184-0.021,0.275
						c-0.005,0.092-0.016,0.184-0.035,0.275h0.895v0.138h-0.909c-0.018,0.092-0.043,0.184-0.076,0.275
						c-0.032,0.092-0.067,0.184-0.103,0.275h1.06l-0.014,0.138h-1.115c-0.102,0.212-0.216,0.396-0.345,0.551h1.322l-0.055,0.138
						h-1.377c-0.055,0.056-0.11,0.108-0.166,0.158c-0.055,0.051-0.11,0.1-0.165,0.145l0.083,0.247h1.378l-0.097,0.138h-1.239
						l0.193,0.551h0.84l0.042,0.139h-0.84l0.193,0.564h0.84l0.041,0.138h-0.84l0.179,0.537h0.84l0.055,0.138h-0.84l0.179,0.551h0.84
						l0.042,0.138h-0.84l0.193,0.551h0.84l0.041,0.138h-0.84l0.042,0.124l0.206,0.151l0.096,0.275h-4.131l-0.097-0.275l0.455-0.689
						l-0.551-1.639H227.684z M228.524,277.012h-0.276l0.124,0.138v0.275h-4.131v-0.275h3.87v-0.275h0.414V277.012z M229.212,278.389
						h-4.132v-0.138h4.132V278.389z M228.771,277.7h-3.236l0.221-0.138h2.768L228.771,277.7z M227.146,268.611v1.377h0.275v-1.102
						h2.314c0.156,0,0.284,0.022,0.385,0.068c-0.046-0.101-0.121-0.184-0.227-0.248c-0.106-0.064-0.236-0.096-0.393-0.096H227.146z
						 M227.146,275.91l0.275,0.275v-3.168h1.859l-0.097-0.275h-2.038V275.91z M230.218,269.3c0-0.059-0.005-0.101-0.014-0.125
						c-0.046-0.009-0.092-0.013-0.138-0.013c-0.046,0-0.092,0-0.139,0h-2.243v0.138H230.218z M227.684,269.438v0.551h1.818
						c0.422,0,0.652-0.184,0.689-0.551H227.684z M227.684,273.293v0.138h1.735l-0.055-0.138H227.684z M227.684,273.569v0.564h1.969
						l-0.193-0.564H227.684z M234.749,277.012h-0.275l0.165,0.138l0.097,0.275h-4.132l-0.096-0.275h3.87l-0.082-0.275h0.413
						L234.749,277.012z M233.371,276.185l-1.308-3.897c0.45-0.413,0.76-0.845,0.93-1.295c0.169-0.449,0.255-0.922,0.255-1.418
						c0-0.404-0.083-0.794-0.248-1.171c-0.166-0.376-0.386-0.721-0.661-1.032c0.422,0.605,0.633,1.248,0.633,1.928
						c0,0.588-0.11,1.113-0.33,1.577c-0.221,0.463-0.533,0.855-0.937,1.177L233,275.91L233.371,276.185z M235.905,278.389h-4.131
						l-0.055-0.138h4.131L235.905,278.389z M235.23,277.7h-3.236l0.165-0.138h2.768L235.23,277.7z"/>
				</g>
			</g>
			<g>
				<g>
					<rect x="105.59" y="261.052" style="fill:#FFFFFF;" width="134.273" height="1.575"/>
					<rect x="105.59" y="263.067" style="fill:#FFFFFF;" width="134.273" height="0.787"/>
				</g>
				<g>
					<rect x="105.59" y="280.576" style="fill:#FFFFFF;" width="134.273" height="1.574"/>
					<rect x="105.59" y="279.348" style="fill:#FFFFFF;" width="134.273" height="0.785"/>
				</g>
			</g>
		</g>
	</g>
	<g>
		<g>
			<polygon style="fill:#FFFFFF;" points="176.503,74.667 184.363,74.788 178.091,79.521 180.403,87.032 173.961,82.526 
				167.529,87.05 169.826,79.53 163.539,74.815 171.396,74.671 173.939,67.236 			"/>
			<g>
				<polygon style="fill:#FFFFFF;" points="198.505,82.942 204.64,83.042 199.738,86.737 201.544,92.606 196.515,89.086 
					191.494,92.62 193.284,86.747 188.376,83.06 194.513,82.947 196.501,77.142 				"/>
				<polygon style="fill:#FFFFFF;" points="149.396,82.942 143.259,83.042 148.159,86.737 146.352,92.606 151.384,89.086 
					156.405,92.62 154.615,86.747 159.525,83.06 153.387,82.947 151.398,77.142 				"/>
			</g>
			<g>
				<polygon style="fill:#FFFFFF;" points="218.668,92.038 224.233,92.123 219.791,95.478 221.426,100.795 216.873,97.604 
					212.316,100.804 213.939,95.479 209.49,92.146 215.055,92.042 216.859,86.778 				"/>
				<polygon style="fill:#FFFFFF;" points="129.227,92.038 123.668,92.123 128.107,95.478 126.469,100.795 131.026,97.604 
					135.582,100.804 133.96,95.479 138.409,92.146 132.846,92.042 131.044,86.778 				"/>
			</g>
		</g>
		<g>
			<polygon style="fill:#FFFFFF;" points="175.628,325.284 183.488,325.163 177.213,320.433 179.528,312.917 173.09,317.423 
				166.659,312.903 168.951,320.419 162.664,325.132 170.519,325.276 173.068,332.715 			"/>
			<g>
				<polygon style="fill:#FFFFFF;" points="197.63,317.007 203.77,316.907 198.868,313.214 200.676,307.347 195.644,310.863 
					190.616,307.331 192.412,313.205 187.501,316.89 193.64,316.997 195.626,322.808 				"/>
				<polygon style="fill:#FFFFFF;" points="148.523,317.007 142.389,316.907 147.286,313.214 145.482,307.347 150.512,310.863 
					155.535,307.331 153.742,313.205 158.65,316.89 152.514,316.997 150.525,322.808 				"/>
			</g>
			<g>
				<polygon style="fill:#FFFFFF;" points="217.796,307.914 223.361,307.829 218.92,304.475 220.558,299.157 215.996,302.345 
					211.447,299.147 213.069,304.47 208.617,307.806 214.183,307.909 215.982,313.173 				"/>
				<polygon style="fill:#FFFFFF;" points="128.358,307.914 122.797,307.829 127.233,304.475 125.596,299.157 130.156,302.345 
					134.711,299.147 133.083,304.47 137.537,307.806 131.971,307.909 130.173,313.173 				"/>
			</g>
		</g>
	</g>
</g>
<g>
	<g>
		<rect x="122.936" y="135.4" style="fill:#D1D3D4;" width="101.153" height="6.448"/>
		<rect x="120.987" y="141.813" style="fill:#6D6E71;" width="105.053" height="1.349"/>
		<rect x="127.656" y="143.066" style="fill:#414042;" width="91.613" height="45.413"/>
		<polygon style="fill:#D1D3D4;" points="173.52,102.749 121.113,134.841 225.914,134.841 		"/>
		<polygon style="fill:#F1F2F2;" points="206.157,131.272 140.869,131.272 173.434,109.31 		"/>
		<g>
			<path style="fill:#939598;" d="M207.6,131.712h-68.173l34.006-22.929L207.6,131.712z M142.305,130.831h62.409l-31.28-20.988
				L142.305,130.831z"/>
		</g>
		<rect x="120.987" y="134.125" style="fill:#6D6E71;" width="105.053" height="1.352"/>
		<polygon style="fill:#939598;" points="228.483,135.251 173.433,98.487 118.543,135.268 120.934,137.828 173.441,103.286 
			226.093,137.811 		"/>
		<g>
			<polygon style="fill:#D1D3D4;" points="140.708,186.606 126.029,186.606 127.182,144.287 139.554,144.287 			"/>
			<rect x="124.372" y="185.063" style="fill:#939598;" width="17.994" height="3.445"/>
			<rect x="126.147" y="143.054" style="fill:#939598;" width="14.443" height="3.447"/>
		</g>
		<g>
			<polygon style="fill:#D1D3D4;" points="167.472,186.606 152.791,186.606 153.947,144.287 166.315,144.287 			"/>
			<rect x="151.133" y="185.063" style="fill:#939598;" width="17.995" height="3.445"/>
			<rect x="152.907" y="143.054" style="fill:#939598;" width="14.448" height="3.447"/>
		</g>
		<g>
			<polygon style="fill:#D1D3D4;" points="194.235,186.606 179.553,186.606 180.71,144.287 193.081,144.287 			"/>
			<rect x="177.899" y="185.063" style="fill:#939598;" width="17.99" height="3.445"/>
			<rect x="179.672" y="143.054" style="fill:#939598;" width="14.446" height="3.447"/>
		</g>
		<g>
			<polygon style="fill:#D1D3D4;" points="220.999,186.606 206.318,186.606 207.474,144.287 219.84,144.287 			"/>
			<rect x="204.662" y="185.063" style="fill:#939598;" width="17.994" height="3.445"/>
			<rect x="206.434" y="143.054" style="fill:#939598;" width="14.446" height="3.447"/>
		</g>
		<rect x="123.127" y="188.431" style="fill:#58595B;" width="100.773" height="13.637"/>
		<rect x="150.184" y="188.413" style="fill:#D1D3D4;" width="46.66" height="4.568"/>
		<rect x="148.314" y="192.954" style="fill:#BCBEC0;" width="50.399" height="4.566"/>
		<rect x="145.613" y="197.499" style="fill:#A7A9AC;" width="55.8" height="4.568"/>
	</g>
	<g>
		<g>
			<path style="fill:#414042;" d="M176.394,113.721c0.19,0.448,0.021,0.958-0.376,1.216l2.833,6.68
				c0.46-0.108,0.944,0.126,1.134,0.576c0.213,0.502-0.022,1.084-0.524,1.297l-5.58,2.366c-0.503,0.213-1.084-0.021-1.298-0.524
				c-0.19-0.45-0.021-0.959,0.375-1.217l-1.025-2.418l-9.554,4.049c-0.508,0.217-1.096-0.02-1.311-0.528
				c-0.215-0.509,0.023-1.096,0.53-1.31l9.554-4.053l-1.025-2.419c-0.462,0.106-0.945-0.127-1.136-0.576
				c-0.213-0.501,0.023-1.083,0.526-1.298l5.579-2.365C175.598,112.981,176.18,113.216,176.394,113.721z"/>
			<g>
				<polygon style="fill:#414042;" points="181.4,121.011 181.816,121.394 180.107,122.429 180.981,120.632 				"/>
				<polygon style="fill:#414042;" points="183.053,122.617 181.057,122.692 182.695,121.546 182.872,122.081 				"/>
			</g>
			<g>
				<polygon style="fill:#414042;" points="170.516,125.101 170.466,124.667 171.988,124.933 170.564,125.534 				"/>
				<polygon style="fill:#414042;" points="170.37,123.324 171.57,124.296 170.033,124.13 170.201,123.728 				"/>
			</g>
		</g>
		<rect x="159.917" y="126.936" style="fill:#414042;" width="24.142" height="2.003"/>
	</g>
</g>
</svg>
